STARTFONT 2.1
FONT -Adobe-ITC Avant Garde Gothic-Book-O-Normal--14-140-75-75-P-81-ISO8859-1
SIZE 14 75 75
FONTBOUNDINGBOX 18 17 -2 -3

STARTPROPERTIES 25
FONTNAME_REGISTRY ""
FAMILY_NAME "ITC Avant Garde Gothic"
FOUNDRY "Adobe"
WEIGHT_NAME "Book"
SLANT "O"
SETWIDTH_NAME "Normal"
ADD_STYLE_NAME ""
PIXEL_SIZE 14
POINT_SIZE 140
RESOLUTION_X 75
RESOLUTION_Y 75
SPACING "P"
AVERAGE_WIDTH 81
CHARSET_REGISTRY "ISO8859"
CHARSET_ENCODING "1"
CHARSET_COLLECTIONS "ASCII ISO8859-1 ADOBE-STANDARD"
FULL_NAME "ITC Avant Garde Gothic Book Oblique"
COPYRIGHT "Copyright (c) 1985,1987 Adobe Systems, Inc., Portions Copyright 1988 Digital Equipment Corp."
CAP_HEIGHT 11
X_HEIGHT 8
WEIGHT 10
QUAD_WIDTH 9
DEFAULT_CHAR 32
FONT_DESCENT 3
FONT_ASCENT 13
ENDPROPERTIES

CHARS 190

STARTCHAR space
ENCODING 32
SWIDTH 277 0
DWIDTH 4 0
BBX 1 1 0 0
BITMAP
00
ENDCHAR

STARTCHAR exclam
ENCODING 33
SWIDTH 295 0
DWIDTH 4 0
BBX 3 11 0 0
BITMAP
20
20
20
40
40
40
40
40
00
80
80
ENDCHAR

STARTCHAR quotedbl
ENCODING 34
SWIDTH 309 0
DWIDTH 7 0
BBX 3 2 3 9
BITMAP
A0
A0
ENDCHAR

STARTCHAR numbersign
ENCODING 35
SWIDTH 720 0
DWIDTH 10 0
BBX 10 11 0 0
BITMAP
0900
0900
0900
7FC0
1200
1200
1200
FF80
2400
2400
2400
ENDCHAR

STARTCHAR dollar
ENCODING 36
SWIDTH 554 0
DWIDTH 8 0
BBX 7 14 0 -2
BITMAP
08
08
1C
22
42
40
38
04
84
84
48
30
20
20
ENDCHAR

STARTCHAR percent
ENCODING 37
SWIDTH 775 0
DWIDTH 12 0
BBX 11 11 0 0
BITMAP
3100
4900
4A00
9200
9400
64C0
0920
0920
1240
1240
2180
ENDCHAR

STARTCHAR ampersand
ENCODING 38
SWIDTH 757 0
DWIDTH 11 0
BBX 9 11 1 0
BITMAP
1C00
2200
2200
2400
1800
2900
4500
8200
8200
8500
7880
ENDCHAR

STARTCHAR quoteright
ENCODING 39
SWIDTH 351 0
DWIDTH 4 0
BBX 2 2 1 9
BITMAP
40
80
ENDCHAR

STARTCHAR parenleft
ENCODING 40
SWIDTH 369 0
DWIDTH 6 0
BBX 5 13 0 -2
BITMAP
08
10
20
40
40
80
80
80
80
80
40
40
20
ENDCHAR

STARTCHAR parenright
ENCODING 41
SWIDTH 369 0
DWIDTH 6 0
BBX 5 13 0 -2
BITMAP
20
10
10
08
08
08
08
08
10
10
20
40
80
ENDCHAR

STARTCHAR asterisk
ENCODING 42
SWIDTH 425 0
DWIDTH 7 0
BBX 4 5 2 6
BITMAP
50
20
D0
40
A0
ENDCHAR

STARTCHAR plus
ENCODING 43
SWIDTH 606 0
DWIDTH 10 0
BBX 7 7 1 1
BITMAP
10
10
10
FE
10
10
10
ENDCHAR

STARTCHAR comma
ENCODING 44
SWIDTH 277 0
DWIDTH 4 0
BBX 2 3 -1 -1
BITMAP
40
40
80
ENDCHAR

STARTCHAR minus
ENCODING 45
SWIDTH 606 0
DWIDTH 9 0
BBX 7 1 0 4
BITMAP
FE
ENDCHAR

STARTCHAR period
ENCODING 46
SWIDTH 277 0
DWIDTH 4 0
BBX 1 2 0 0
BITMAP
80
80
ENDCHAR

STARTCHAR slash
ENCODING 47
SWIDTH 437 0
DWIDTH 5 0
BBX 6 11 -1 0
BITMAP
04
04
08
08
10
10
20
20
40
40
80
ENDCHAR

STARTCHAR zero
ENCODING 48
SWIDTH 554 0
DWIDTH 8 0
BBX 7 11 0 0
BITMAP
1C
22
42
42
82
82
82
84
84
88
70
ENDCHAR

STARTCHAR one
ENCODING 49
SWIDTH 554 0
DWIDTH 8 0
BBX 4 11 2 0
BITMAP
30
50
90
20
20
20
20
20
40
40
40
ENDCHAR

STARTCHAR two
ENCODING 50
SWIDTH 554 0
DWIDTH 8 0
BBX 8 11 -1 0
BITMAP
1E
21
21
01
02
04
08
10
20
40
FC
ENDCHAR

STARTCHAR three
ENCODING 51
SWIDTH 554 0
DWIDTH 8 0
BBX 7 11 0 0
BITMAP
3C
42
42
02
0C
18
04
82
82
44
38
ENDCHAR

STARTCHAR four
ENCODING 52
SWIDTH 554 0
DWIDTH 8 0
BBX 7 11 0 0
BITMAP
06
0A
0A
12
24
24
44
84
FE
08
08
ENDCHAR

STARTCHAR five
ENCODING 53
SWIDTH 554 0
DWIDTH 8 0
BBX 7 11 0 0
BITMAP
3E
20
20
40
7C
02
02
82
82
84
78
ENDCHAR

STARTCHAR six
ENCODING 54
SWIDTH 554 0
DWIDTH 8 0
BBX 7 11 0 0
BITMAP
04
08
10
20
78
44
82
82
82
44
38
ENDCHAR

STARTCHAR seven
ENCODING 55
SWIDTH 554 0
DWIDTH 8 0
BBX 7 11 0 0
BITMAP
7E
02
04
08
08
10
10
20
40
40
80
ENDCHAR

STARTCHAR eight
ENCODING 56
SWIDTH 554 0
DWIDTH 8 0
BBX 7 11 0 0
BITMAP
3C
42
42
24
38
44
82
82
82
44
38
ENDCHAR

STARTCHAR nine
ENCODING 57
SWIDTH 554 0
DWIDTH 8 0
BBX 7 11 0 0
BITMAP
38
44
82
82
82
44
3C
08
10
20
40
ENDCHAR

STARTCHAR colon
ENCODING 58
SWIDTH 277 0
DWIDTH 4 0
BBX 2 7 0 0
BITMAP
40
40
00
00
00
80
80
ENDCHAR

STARTCHAR semicolon
ENCODING 59
SWIDTH 277 0
DWIDTH 4 0
BBX 3 8 -1 -1
BITMAP
20
20
00
00
00
40
40
80
ENDCHAR

STARTCHAR less
ENCODING 60
SWIDTH 606 0
DWIDTH 10 0
BBX 8 7 0 1
BITMAP
03
0C
30
C0
30
0C
03
ENDCHAR

STARTCHAR equal
ENCODING 61
SWIDTH 606 0
DWIDTH 10 0
BBX 7 3 1 3
BITMAP
FE
00
FE
ENDCHAR

STARTCHAR greater
ENCODING 62
SWIDTH 606 0
DWIDTH 10 0
BBX 8 7 0 1
BITMAP
C0
30
0C
03
0C
30
C0
ENDCHAR

STARTCHAR question
ENCODING 63
SWIDTH 591 0
DWIDTH 7 0
BBX 6 11 1 0
BITMAP
78
84
84
08
10
20
40
40
00
80
80
ENDCHAR

STARTCHAR at
ENCODING 64
SWIDTH 867 0
DWIDTH 13 0
BBX 11 11 1 0
BITMAP
0F80
3040
4620
4920
9120
9220
9240
9240
8D80
4000
3F00
ENDCHAR

STARTCHAR A
ENCODING 65
SWIDTH 740 0
DWIDTH 11 0
BBX 10 11 -1 0
BITMAP
0200
0200
0500
0900
0880
1080
3F80
2080
4040
4040
8040
ENDCHAR

STARTCHAR B
ENCODING 66
SWIDTH 574 0
DWIDTH 9 0
BBX 8 11 0 0
BITMAP
3E
21
21
21
42
7E
41
41
81
82
FC
ENDCHAR

STARTCHAR C
ENCODING 67
SWIDTH 813 0
DWIDTH 11 0
BBX 10 11 0 0
BITMAP
0F00
3080
4040
4040
8000
8000
8000
8000
8080
4300
3C00
ENDCHAR

STARTCHAR D
ENCODING 68
SWIDTH 744 0
DWIDTH 10 0
BBX 9 11 0 0
BITMAP
3E00
2100
2080
4080
4080
4080
4080
4100
8100
8600
F800
ENDCHAR

STARTCHAR E
ENCODING 69
SWIDTH 536 0
DWIDTH 8 0
BBX 8 11 0 0
BITMAP
3F
20
20
20
40
7E
40
40
80
80
FC
ENDCHAR

STARTCHAR F
ENCODING 70
SWIDTH 485 0
DWIDTH 7 0
BBX 7 11 0 0
BITMAP
3E
20
20
20
40
7C
40
40
80
80
80
ENDCHAR

STARTCHAR G
ENCODING 71
SWIDTH 872 0
DWIDTH 10 0
BBX 9 11 0 0
BITMAP
0F00
3080
4080
4000
8000
8000
8F80
8080
8100
4200
3C00
ENDCHAR

STARTCHAR H
ENCODING 72
SWIDTH 683 0
DWIDTH 10 0
BBX 9 11 0 0
BITMAP
2080
2080
2080
4100
4100
7F00
4100
4100
8200
8200
8200
ENDCHAR

STARTCHAR I
ENCODING 73
SWIDTH 226 0
DWIDTH 4 0
BBX 3 11 0 0
BITMAP
20
20
20
40
40
40
40
40
80
80
80
ENDCHAR

STARTCHAR J
ENCODING 74
SWIDTH 482 0
DWIDTH 7 0
BBX 7 11 -1 0
BITMAP
02
02
02
04
04
04
04
04
08
88
70
ENDCHAR

STARTCHAR K
ENCODING 75
SWIDTH 591 0
DWIDTH 8 0
BBX 8 11 0 0
BITMAP
21
22
24
48
50
60
50
48
88
84
82
ENDCHAR

STARTCHAR L
ENCODING 76
SWIDTH 462 0
DWIDTH 6 0
BBX 5 11 0 0
BITMAP
20
20
20
40
40
40
40
40
80
80
F8
ENDCHAR

STARTCHAR M
ENCODING 77
SWIDTH 919 0
DWIDTH 13 0
BBX 12 11 0 0
BITMAP
2010
2030
3050
5090
48A0
4920
4A20
4620
8440
8440
8440
ENDCHAR

STARTCHAR N
ENCODING 78
SWIDTH 740 0
DWIDTH 11 0
BBX 10 11 0 0
BITMAP
2040
2040
3040
5080
4880
4880
4480
4280
8300
8100
8100
ENDCHAR

STARTCHAR O
ENCODING 79
SWIDTH 869 0
DWIDTH 11 0
BBX 10 11 0 0
BITMAP
0F00
3080
4040
4040
8040
8040
8040
8080
8080
4300
3C00
ENDCHAR

STARTCHAR P
ENCODING 80
SWIDTH 592 0
DWIDTH 9 0
BBX 8 11 0 0
BITMAP
3E
21
21
41
42
42
7C
40
80
80
80
ENDCHAR

STARTCHAR Q
ENCODING 81
SWIDTH 871 0
DWIDTH 11 0
BBX 10 11 0 0
BITMAP
0F00
3080
4040
4040
8040
8040
8040
9880
A680
4300
3CC0
ENDCHAR

STARTCHAR R
ENCODING 82
SWIDTH 607 0
DWIDTH 9 0
BBX 8 11 0 0
BITMAP
3C
22
21
41
41
42
5C
48
84
84
82
ENDCHAR

STARTCHAR S
ENCODING 83
SWIDTH 498 0
DWIDTH 8 0
BBX 8 11 0 0
BITMAP
1E
21
41
40
30
0C
02
02
84
84
78
ENDCHAR

STARTCHAR T
ENCODING 84
SWIDTH 426 0
DWIDTH 7 0
BBX 7 11 1 0
BITMAP
FE
10
10
20
20
20
20
20
40
40
40
ENDCHAR

STARTCHAR U
ENCODING 85
SWIDTH 655 0
DWIDTH 10 0
BBX 9 11 0 0
BITMAP
2080
2080
2080
4100
4100
4100
4100
8200
8200
4400
3800
ENDCHAR

STARTCHAR V
ENCODING 86
SWIDTH 702 0
DWIDTH 10 0
BBX 9 11 1 0
BITMAP
8080
8100
8100
4200
4400
4400
4800
2800
3000
2000
2000
ENDCHAR

STARTCHAR W
ENCODING 87
SWIDTH 960 0
DWIDTH 13 0
BBX 13 11 0 0
BITMAP
8208
8210
8610
8A20
8A20
5140
5140
5140
6180
4100
4100
ENDCHAR

STARTCHAR X
ENCODING 88
SWIDTH 609 0
DWIDTH 9 0
BBX 9 11 -1 0
BITMAP
2080
2080
1100
1200
0C00
0800
1400
2200
2200
4100
8100
ENDCHAR

STARTCHAR Y
ENCODING 89
SWIDTH 592 0
DWIDTH 8 0
BBX 7 11 1 0
BITMAP
82
82
84
48
48
50
20
20
40
40
40
ENDCHAR

STARTCHAR Z
ENCODING 90
SWIDTH 480 0
DWIDTH 8 0
BBX 8 11 0 0
BITMAP
3F
01
02
04
08
08
10
20
40
80
FC
ENDCHAR

STARTCHAR bracketleft
ENCODING 91
SWIDTH 351 0
DWIDTH 6 0
BBX 5 13 1 -2
BITMAP
18
20
20
20
20
40
40
40
40
80
80
80
60
ENDCHAR

STARTCHAR backslash
ENCODING 92
SWIDTH 605 0
DWIDTH 7 0
BBX 6 11 1 0
BITMAP
80
80
40
40
20
20
10
10
08
08
04
ENDCHAR

STARTCHAR bracketright
ENCODING 93
SWIDTH 351 0
DWIDTH 5 0
BBX 5 13 0 -2
BITMAP
30
08
08
08
10
10
10
10
20
20
20
20
C0
ENDCHAR

STARTCHAR asciicircum
ENCODING 94
SWIDTH 672 0
DWIDTH 8 0
BBX 5 6 1 5
BITMAP
20
20
50
50
88
88
ENDCHAR

STARTCHAR underscore
ENCODING 95
SWIDTH 500 0
DWIDTH 7 0
BBX 7 1 0 -2
BITMAP
FE
ENDCHAR

STARTCHAR quoteleft
ENCODING 96
SWIDTH 351 0
DWIDTH 4 0
BBX 2 2 1 9
BITMAP
80
40
ENDCHAR

STARTCHAR a
ENCODING 97
SWIDTH 683 0
DWIDTH 9 0
BBX 8 8 0 0
BITMAP
1D
63
41
81
82
82
46
3A
ENDCHAR

STARTCHAR b
ENCODING 98
SWIDTH 682 0
DWIDTH 9 0
BBX 8 11 0 0
BITMAP
20
20
20
5C
62
41
41
81
82
C6
B8
ENDCHAR

STARTCHAR c
ENCODING 99
SWIDTH 647 0
DWIDTH 9 0
BBX 8 8 0 0
BITMAP
1C
62
41
80
80
82
44
38
ENDCHAR

STARTCHAR d
ENCODING 100
SWIDTH 685 0
DWIDTH 9 0
BBX 9 11 0 0
BITMAP
0080
0080
0080
1D00
6300
4100
8100
8100
8200
4600
3A00
ENDCHAR

STARTCHAR e
ENCODING 101
SWIDTH 650 0
DWIDTH 9 0
BBX 8 8 0 0
BITMAP
1E
61
41
FF
80
82
44
38
ENDCHAR

STARTCHAR f
ENCODING 102
SWIDTH 314 0
DWIDTH 4 0
BBX 5 11 0 0
BITMAP
18
20
20
F0
40
40
40
40
80
80
80
ENDCHAR

STARTCHAR g
ENCODING 103
SWIDTH 673 0
DWIDTH 9 0
BBX 9 11 0 -3
BITMAP
1C80
6300
4100
8100
8100
8200
4600
3A00
0200
8400
7800
ENDCHAR

STARTCHAR h
ENCODING 104
SWIDTH 610 0
DWIDTH 9 0
BBX 8 11 0 0
BITMAP
20
20
20
5C
62
41
41
41
82
82
82
ENDCHAR

STARTCHAR i
ENCODING 105
SWIDTH 200 0
DWIDTH 3 0
BBX 3 11 0 0
BITMAP
20
20
00
40
40
40
40
80
80
80
80
ENDCHAR

STARTCHAR j
ENCODING 106
SWIDTH 203 0
DWIDTH 3 0
BBX 5 14 -2 -3
BITMAP
08
08
00
10
10
10
10
10
20
20
20
20
20
C0
ENDCHAR

STARTCHAR k
ENCODING 107
SWIDTH 502 0
DWIDTH 7 0
BBX 7 11 0 0
BITMAP
20
20
20
42
44
48
50
60
90
88
84
ENDCHAR

STARTCHAR l
ENCODING 108
SWIDTH 200 0
DWIDTH 3 0
BBX 3 11 0 0
BITMAP
20
20
20
40
40
40
40
40
80
80
80
ENDCHAR

STARTCHAR m
ENCODING 109
SWIDTH 938 0
DWIDTH 13 0
BBX 12 8 0 0
BITMAP
5CE0
6310
4210
4210
4210
8420
8420
8420
ENDCHAR

STARTCHAR n
ENCODING 110
SWIDTH 610 0
DWIDTH 9 0
BBX 8 8 0 0
BITMAP
5C
62
41
41
41
82
82
82
ENDCHAR

STARTCHAR o
ENCODING 111
SWIDTH 655 0
DWIDTH 9 0
BBX 8 8 0 0
BITMAP
1C
62
41
81
81
82
46
38
ENDCHAR

STARTCHAR p
ENCODING 112
SWIDTH 682 0
DWIDTH 9 0
BBX 9 11 -1 -3
BITMAP
2E00
3100
2080
4080
4080
4100
6300
5C00
8000
8000
8000
ENDCHAR

STARTCHAR q
ENCODING 113
SWIDTH 682 0
DWIDTH 10 0
BBX 9 11 0 -3
BITMAP
1C80
6280
4100
8100
8100
8300
4500
3900
0200
0200
0200
ENDCHAR

STARTCHAR r
ENCODING 114
SWIDTH 301 0
DWIDTH 5 0
BBX 5 8 0 0
BITMAP
58
60
40
40
40
80
80
80
ENDCHAR

STARTCHAR s
ENCODING 115
SWIDTH 388 0
DWIDTH 6 0
BBX 5 8 0 0
BITMAP
30
48
40
20
10
88
88
70
ENDCHAR

STARTCHAR t
ENCODING 116
SWIDTH 339 0
DWIDTH 5 0
BBX 4 11 1 0
BITMAP
20
20
20
F0
40
40
40
40
80
80
80
ENDCHAR

STARTCHAR u
ENCODING 117
SWIDTH 608 0
DWIDTH 9 0
BBX 8 8 0 0
BITMAP
41
41
41
82
82
82
C6
7A
ENDCHAR

STARTCHAR v
ENCODING 118
SWIDTH 554 0
DWIDTH 8 0
BBX 7 8 0 0
BITMAP
82
84
44
48
48
50
20
20
ENDCHAR

STARTCHAR w
ENCODING 119
SWIDTH 831 0
DWIDTH 12 0
BBX 11 8 0 0
BITMAP
8420
8420
8A40
4A40
5280
6180
4100
4100
ENDCHAR

STARTCHAR x
ENCODING 120
SWIDTH 480 0
DWIDTH 7 0
BBX 7 8 -1 0
BITMAP
42
24
28
10
10
28
48
84
ENDCHAR

STARTCHAR y
ENCODING 121
SWIDTH 536 0
DWIDTH 8 0
BBX 7 11 0 -3
BITMAP
82
82
44
48
48
50
30
20
40
40
80
ENDCHAR

STARTCHAR z
ENCODING 122
SWIDTH 425 0
DWIDTH 6 0
BBX 6 8 -1 0
BITMAP
7C
04
08
10
20
40
80
F8
ENDCHAR

STARTCHAR braceleft
ENCODING 123
SWIDTH 351 0
DWIDTH 6 0
BBX 5 13 1 -2
BITMAP
18
20
20
20
20
40
80
40
40
80
80
80
60
ENDCHAR

STARTCHAR bar
ENCODING 124
SWIDTH 672 0
DWIDTH 10 0
BBX 3 11 4 0
BITMAP
20
20
20
40
40
40
40
80
80
80
80
ENDCHAR

STARTCHAR braceright
ENCODING 125
SWIDTH 351 0
DWIDTH 6 0
BBX 5 13 0 -2
BITMAP
30
08
08
08
10
10
08
10
20
20
20
20
C0
ENDCHAR

STARTCHAR asciitilde
ENCODING 126
SWIDTH 606 0
DWIDTH 10 0
BBX 7 2 1 3
BITMAP
72
9C
ENDCHAR

STARTCHAR exclamdown
ENCODING 161
SWIDTH 295 0
DWIDTH 4 0
BBX 3 11 0 -3
BITMAP
20
20
00
40
40
40
40
80
80
80
80
ENDCHAR

STARTCHAR cent
ENCODING 162
SWIDTH 554 0
DWIDTH 8 0
BBX 7 11 0 0
BITMAP
08
08
3C
42
80
80
80
44
78
20
20
ENDCHAR

STARTCHAR sterling
ENCODING 163
SWIDTH 554 0
DWIDTH 9 0
BBX 8 11 0 0
BITMAP
1C
22
41
40
20
7C
10
10
12
22
FC
ENDCHAR

STARTCHAR currency
ENCODING 164
SWIDTH 554 0
DWIDTH 8 0
BBX 6 6 1 2
BITMAP
B4
48
84
84
48
B4
ENDCHAR

STARTCHAR yen
ENCODING 165
SWIDTH 554 0
DWIDTH 8 0
BBX 8 11 0 0
BITMAP
41
41
22
24
EE
28
10
FC
10
20
20
ENDCHAR

STARTCHAR brokenbar
ENCODING 166
SWIDTH 672 0
DWIDTH 10 0
BBX 2 11 5 0
BITMAP
40
40
40
40
00
00
00
80
80
80
80
ENDCHAR

STARTCHAR section
ENCODING 167
SWIDTH 615 0
DWIDTH 8 0
BBX 9 14 -1 -3
BITMAP
0F00
1080
1080
0800
1400
2200
4100
4100
2200
1C00
0800
8400
8400
7800
ENDCHAR

STARTCHAR dieresis
ENCODING 168
SWIDTH 369 0
DWIDTH 5 0
BBX 3 2 2 9
BITMAP
A0
A0
ENDCHAR

STARTCHAR copyright
ENCODING 169
SWIDTH 747 0
DWIDTH 12 0
BBX 10 10 1 0
BITMAP
1E00
6180
4C80
9240
9040
9040
9240
4C80
6180
1E00
ENDCHAR

STARTCHAR ordfeminine
ENCODING 170
SWIDTH 369 0
DWIDTH 6 0
BBX 5 6 0 5
BITMAP
38
48
50
78
00
F0
ENDCHAR

STARTCHAR guillemotleft
ENCODING 171
SWIDTH 425 0
DWIDTH 6 0
BBX 7 6 -1 2
BITMAP
12
24
48
90
48
24
ENDCHAR

STARTCHAR logicalnot
ENCODING 172
SWIDTH 606 0
DWIDTH 9 0
BBX 7 4 1 3
BITMAP
FE
02
04
04
ENDCHAR

STARTCHAR hyphen
ENCODING 173
SWIDTH 332 0
DWIDTH 5 0
BBX 4 1 0 4
BITMAP
F0
ENDCHAR

STARTCHAR registered
ENCODING 174
SWIDTH 747 0
DWIDTH 12 0
BBX 10 10 1 0
BITMAP
1E00
6180
5C80
9240
9240
9E40
9440
5280
6180
1E00
ENDCHAR

STARTCHAR macron
ENCODING 175
SWIDTH 485 0
DWIDTH 7 0
BBX 4 1 2 9
BITMAP
F0
ENDCHAR

STARTCHAR degree
ENCODING 176
SWIDTH 400 0
DWIDTH 6 0
BBX 4 4 1 7
BITMAP
60
90
90
60
ENDCHAR

STARTCHAR plusminus
ENCODING 177
SWIDTH 606 0
DWIDTH 10 0
BBX 7 7 1 1
BITMAP
08
08
7E
10
10
00
FC
ENDCHAR

STARTCHAR twosuperior
ENCODING 178
SWIDTH 332 0
DWIDTH 5 0
BBX 5 6 0 5
BITMAP
38
48
10
20
40
F0
ENDCHAR

STARTCHAR threesuperior
ENCODING 179
SWIDTH 332 0
DWIDTH 5 0
BBX 5 6 0 5
BITMAP
78
08
30
08
88
70
ENDCHAR

STARTCHAR acute
ENCODING 180
SWIDTH 375 0
DWIDTH 6 0
BBX 2 2 3 9
BITMAP
40
80
ENDCHAR

STARTCHAR mu
ENCODING 181
SWIDTH 608 0
DWIDTH 9 0
BBX 9 11 -1 -3
BITMAP
2080
2080
2080
4100
4100
4100
6300
BD00
8000
8000
8000
ENDCHAR

STARTCHAR paragraph
ENCODING 182
SWIDTH 564 0
DWIDTH 8 0
BBX 8 13 1 -2
BITMAP
3F
7A
FA
F4
F4
74
28
28
28
28
50
50
50
ENDCHAR

STARTCHAR periodcentered
ENCODING 183
SWIDTH 277 0
DWIDTH 4 0
BBX 1 2 1 3
BITMAP
80
80
ENDCHAR

STARTCHAR cedilla
ENCODING 184
SWIDTH 324 0
DWIDTH 5 0
BBX 4 3 0 -3
BITMAP
20
90
60
ENDCHAR

STARTCHAR onesuperior
ENCODING 185
SWIDTH 332 0
DWIDTH 5 0
BBX 2 6 1 5
BITMAP
C0
40
40
80
80
80
ENDCHAR

STARTCHAR ordmasculine
ENCODING 186
SWIDTH 369 0
DWIDTH 6 0
BBX 5 6 0 5
BITMAP
38
48
48
70
00
F0
ENDCHAR

STARTCHAR guillemotright
ENCODING 187
SWIDTH 425 0
DWIDTH 6 0
BBX 7 6 -1 2
BITMAP
48
24
12
24
48
90
ENDCHAR

STARTCHAR onequarter
ENCODING 188
SWIDTH 831 0
DWIDTH 12 0
BBX 9 11 2 0
BITMAP
C200
4400
4400
8800
8800
9100
1300
2500
2900
5F80
4200
ENDCHAR

STARTCHAR onehalf
ENCODING 189
SWIDTH 831 0
DWIDTH 12 0
BBX 9 11 2 0
BITMAP
C200
4400
4400
8800
8800
9380
1480
2100
2200
4400
4F00
ENDCHAR

STARTCHAR threequarters
ENCODING 190
SWIDTH 831 0
DWIDTH 12 0
BBX 11 11 0 0
BITMAP
7880
0900
3100
0A00
8A00
7440
04C0
0940
0A40
17E0
1080
ENDCHAR

STARTCHAR questiondown
ENCODING 191
SWIDTH 591 0
DWIDTH 7 0
BBX 6 11 -1 -3
BITMAP
08
08
00
10
10
20
40
80
84
88
70
ENDCHAR

STARTCHAR Agrave
ENCODING 192
SWIDTH 740 0
DWIDTH 11 0
BBX 10 14 -1 0
BITMAP
0400
0200
0000
0200
0200
0500
0900
0880
1080
3F80
2080
4040
4040
8040
ENDCHAR

STARTCHAR Aacute
ENCODING 193
SWIDTH 740 0
DWIDTH 11 0
BBX 10 14 -1 0
BITMAP
0100
0200
0000
0200
0200
0500
0900
0880
1080
3F80
2080
4040
4040
8040
ENDCHAR

STARTCHAR Acircumflex
ENCODING 194
SWIDTH 740 0
DWIDTH 11 0
BBX 10 14 -1 0
BITMAP
0300
0500
0000
0200
0200
0500
0900
0880
1080
3F80
2080
4040
4040
8040
ENDCHAR

STARTCHAR Atilde
ENCODING 195
SWIDTH 740 0
DWIDTH 11 0
BBX 10 14 -1 0
BITMAP
0680
0B00
0000
0200
0200
0500
0900
0880
1080
3F80
2080
4040
4040
8040
ENDCHAR

STARTCHAR Adieresis
ENCODING 196
SWIDTH 740 0
DWIDTH 11 0
BBX 10 14 -1 0
BITMAP
0500
0500
0000
0200
0200
0500
0900
0880
1080
3F80
2080
4040
4040
8040
ENDCHAR

STARTCHAR Aring
ENCODING 197
SWIDTH 740 0
DWIDTH 11 0
BBX 10 14 -1 0
BITMAP
0200
0500
0200
0200
0200
0500
0900
0880
1080
3F80
2080
4040
4040
8040
ENDCHAR

STARTCHAR AE
ENCODING 198
SWIDTH 992 0
DWIDTH 14 0
BBX 14 11 -1 0
BITMAP
00FC
0140
0240
0280
0480
08F8
1F80
2080
2100
4100
81F8
ENDCHAR

STARTCHAR Ccedilla
ENCODING 199
SWIDTH 813 0
DWIDTH 11 0
BBX 10 14 0 -3
BITMAP
0F00
3080
4040
4040
8000
8000
8000
8000
8080
4300
3C00
0800
2400
1800
ENDCHAR

STARTCHAR Egrave
ENCODING 200
SWIDTH 536 0
DWIDTH 8 0
BBX 8 14 0 0
BITMAP
08
04
00
3F
20
20
20
40
7E
40
40
80
80
FC
ENDCHAR

STARTCHAR Eacute
ENCODING 201
SWIDTH 536 0
DWIDTH 8 0
BBX 8 14 0 0
BITMAP
02
04
00
3F
20
20
20
40
7E
40
40
80
80
FC
ENDCHAR

STARTCHAR Ecircumflex
ENCODING 202
SWIDTH 536 0
DWIDTH 8 0
BBX 8 14 0 0
BITMAP
06
0A
00
3F
20
20
20
40
7E
40
40
80
80
FC
ENDCHAR

STARTCHAR Edieresis
ENCODING 203
SWIDTH 536 0
DWIDTH 8 0
BBX 8 14 0 0
BITMAP
0A
0A
00
3F
20
20
20
40
7E
40
40
80
80
FC
ENDCHAR

STARTCHAR Igrave
ENCODING 204
SWIDTH 226 0
DWIDTH 4 0
BBX 3 14 0 0
BITMAP
40
20
00
20
20
20
40
40
40
40
40
80
80
80
ENDCHAR

STARTCHAR Iacute
ENCODING 205
SWIDTH 226 0
DWIDTH 4 0
BBX 4 14 0 0
BITMAP
10
20
00
20
20
20
40
40
40
40
40
80
80
80
ENDCHAR

STARTCHAR Icircumflex
ENCODING 206
SWIDTH 226 0
DWIDTH 4 0
BBX 4 14 0 0
BITMAP
30
50
00
20
20
20
40
40
40
40
40
80
80
80
ENDCHAR

STARTCHAR Idieresis
ENCODING 207
SWIDTH 226 0
DWIDTH 4 0
BBX 4 14 0 0
BITMAP
50
50
00
20
20
20
40
40
40
40
40
80
80
80
ENDCHAR

STARTCHAR Eth
ENCODING 208
SWIDTH 790 0
DWIDTH 10 0
BBX 9 11 0 0
BITMAP
3E00
2100
2080
4080
4080
F080
4080
4100
8100
8600
F800
ENDCHAR

STARTCHAR Ntilde
ENCODING 209
SWIDTH 740 0
DWIDTH 11 0
BBX 10 14 0 0
BITMAP
0680
0B00
0000
2040
2040
3040
5080
4880
4880
4480
4280
8300
8100
8100
ENDCHAR

STARTCHAR Ograve
ENCODING 210
SWIDTH 869 0
DWIDTH 11 0
BBX 10 14 0 0
BITMAP
0800
0400
0000
0F00
3080
4040
4040
8040
8040
8040
8080
8080
4300
3C00
ENDCHAR

STARTCHAR Oacute
ENCODING 211
SWIDTH 869 0
DWIDTH 11 0
BBX 10 14 0 0
BITMAP
0200
0400
0000
0F00
3080
4040
4040
8040
8040
8040
8080
8080
4300
3C00
ENDCHAR

STARTCHAR Ocircumflex
ENCODING 212
SWIDTH 869 0
DWIDTH 11 0
BBX 10 14 0 0
BITMAP
0600
0A00
0000
0F00
3080
4040
4040
8040
8040
8040
8080
8080
4300
3C00
ENDCHAR

STARTCHAR Otilde
ENCODING 213
SWIDTH 869 0
DWIDTH 11 0
BBX 10 14 0 0
BITMAP
0680
0B00
0000
0F00
3080
4040
4040
8040
8040
8040
8080
8080
4300
3C00
ENDCHAR

STARTCHAR Odieresis
ENCODING 214
SWIDTH 869 0
DWIDTH 11 0
BBX 10 14 0 0
BITMAP
0A00
0A00
0000
0F00
3080
4040
4040
8040
8040
8040
8080
8080
4300
3C00
ENDCHAR

STARTCHAR multiply
ENCODING 215
SWIDTH 606 0
DWIDTH 10 0
BBX 8 7 1 1
BITMAP
41
22
14
18
28
44
82
ENDCHAR

STARTCHAR Oslash
ENCODING 216
SWIDTH 868 0
DWIDTH 11 0
BBX 10 11 0 0
BITMAP
0F40
3080
4140
4240
8440
8840
8840
9080
A080
4300
BC00
ENDCHAR

STARTCHAR Ugrave
ENCODING 217
SWIDTH 655 0
DWIDTH 10 0
BBX 9 14 0 0
BITMAP
0800
0400
0000
2080
2080
2080
4100
4100
4100
4100
8200
8200
4400
3800
ENDCHAR

STARTCHAR Uacute
ENCODING 218
SWIDTH 655 0
DWIDTH 10 0
BBX 9 14 0 0
BITMAP
0200
0400
0000
2080
2080
2080
4100
4100
4100
4100
8200
8200
4400
3800
ENDCHAR

STARTCHAR Ucircumflex
ENCODING 219
SWIDTH 655 0
DWIDTH 10 0
BBX 9 14 0 0
BITMAP
0600
0A00
0000
2080
2080
2080
4100
4100
4100
4100
8200
8200
4400
3800
ENDCHAR

STARTCHAR Udieresis
ENCODING 220
SWIDTH 655 0
DWIDTH 10 0
BBX 9 14 0 0
BITMAP
0A00
0A00
0000
2080
2080
2080
4100
4100
4100
4100
8200
8200
4400
3800
ENDCHAR

STARTCHAR Yacute
ENCODING 221
SWIDTH 592 0
DWIDTH 8 0
BBX 7 14 1 0
BITMAP
08
10
00
82
82
84
48
48
50
20
20
40
40
40
ENDCHAR

STARTCHAR Thorn
ENCODING 222
SWIDTH 592 0
DWIDTH 9 0
BBX 7 11 0 0
BITMAP
20
20
3C
22
42
42
44
84
F8
80
80
ENDCHAR

STARTCHAR germandbls
ENCODING 223
SWIDTH 554 0
DWIDTH 8 0
BBX 7 11 0 0
BITMAP
1C
22
22
22
4C
44
42
42
82
C4
B8
ENDCHAR

STARTCHAR agrave
ENCODING 224
SWIDTH 683 0
DWIDTH 9 0
BBX 8 11 0 0
BITMAP
08
04
00
1D
63
41
81
82
82
46
3A
ENDCHAR

STARTCHAR aacute
ENCODING 225
SWIDTH 683 0
DWIDTH 9 0
BBX 8 11 0 0
BITMAP
04
08
00
1D
63
41
81
82
82
46
3A
ENDCHAR

STARTCHAR acircumflex
ENCODING 226
SWIDTH 683 0
DWIDTH 9 0
BBX 8 11 0 0
BITMAP
0C
14
00
1D
63
41
81
82
82
46
3A
ENDCHAR

STARTCHAR atilde
ENCODING 227
SWIDTH 683 0
DWIDTH 9 0
BBX 8 11 0 0
BITMAP
1A
2C
00
1D
63
41
81
82
82
46
3A
ENDCHAR

STARTCHAR adieresis
ENCODING 228
SWIDTH 683 0
DWIDTH 9 0
BBX 8 11 0 0
BITMAP
14
14
00
1D
63
41
81
82
82
46
3A
ENDCHAR

STARTCHAR aring
ENCODING 229
SWIDTH 683 0
DWIDTH 9 0
BBX 8 12 0 0
BITMAP
04
0A
04
00
1D
63
41
81
82
82
46
3A
ENDCHAR

STARTCHAR ae
ENCODING 230
SWIDTH 1157 0
DWIDTH 16 0
BBX 15 8 0 0
BITMAP
1D78
6384
4102
81FE
8100
8204
4708
3AF0
ENDCHAR

STARTCHAR ccedilla
ENCODING 231
SWIDTH 647 0
DWIDTH 9 0
BBX 8 11 0 -3
BITMAP
1C
62
41
80
80
82
44
38
10
48
30
ENDCHAR

STARTCHAR egrave
ENCODING 232
SWIDTH 650 0
DWIDTH 9 0
BBX 8 11 0 0
BITMAP
08
04
00
1E
61
41
FF
80
82
44
38
ENDCHAR

STARTCHAR eacute
ENCODING 233
SWIDTH 650 0
DWIDTH 9 0
BBX 8 11 0 0
BITMAP
04
08
00
1E
61
41
FF
80
82
44
38
ENDCHAR

STARTCHAR ecircumflex
ENCODING 234
SWIDTH 650 0
DWIDTH 9 0
BBX 8 11 0 0
BITMAP
06
0A
00
1E
61
41
FF
80
82
44
38
ENDCHAR

STARTCHAR edieresis
ENCODING 235
SWIDTH 650 0
DWIDTH 9 0
BBX 8 11 0 0
BITMAP
0A
0A
00
1E
61
41
FF
80
82
44
38
ENDCHAR

STARTCHAR igrave
ENCODING 236
SWIDTH 200 0
DWIDTH 3 0
BBX 2 11 0 0
BITMAP
80
40
00
40
40
40
40
80
80
80
80
ENDCHAR

STARTCHAR iacute
ENCODING 237
SWIDTH 200 0
DWIDTH 3 0
BBX 3 11 0 0
BITMAP
20
40
00
40
40
40
40
80
80
80
80
ENDCHAR

STARTCHAR icircumflex
ENCODING 238
SWIDTH 200 0
DWIDTH 3 0
BBX 3 11 0 0
BITMAP
40
A0
00
40
40
40
40
80
80
80
80
ENDCHAR

STARTCHAR idieresis
ENCODING 239
SWIDTH 200 0
DWIDTH 3 0
BBX 3 11 0 0
BITMAP
A0
A0
00
40
40
40
40
80
80
80
80
ENDCHAR

STARTCHAR eth
ENCODING 240
SWIDTH 655 0
DWIDTH 9 0
BBX 8 11 0 0
BITMAP
6C
38
44
1E
63
41
81
81
82
46
38
ENDCHAR

STARTCHAR ntilde
ENCODING 241
SWIDTH 610 0
DWIDTH 9 0
BBX 8 11 0 0
BITMAP
1A
2C
00
5C
62
41
41
41
82
82
82
ENDCHAR

STARTCHAR ograve
ENCODING 242
SWIDTH 655 0
DWIDTH 9 0
BBX 8 11 0 0
BITMAP
10
08
00
1C
62
41
81
81
82
46
38
ENDCHAR

STARTCHAR oacute
ENCODING 243
SWIDTH 655 0
DWIDTH 9 0
BBX 8 11 0 0
BITMAP
04
08
00
1C
62
41
81
81
82
46
38
ENDCHAR

STARTCHAR ocircumflex
ENCODING 244
SWIDTH 655 0
DWIDTH 9 0
BBX 8 11 0 0
BITMAP
0C
14
00
1C
62
41
81
81
82
46
38
ENDCHAR

STARTCHAR otilde
ENCODING 245
SWIDTH 655 0
DWIDTH 9 0
BBX 8 11 0 0
BITMAP
1A
2C
00
1C
62
41
81
81
82
46
38
ENDCHAR

STARTCHAR odieresis
ENCODING 246
SWIDTH 655 0
DWIDTH 9 0
BBX 8 11 0 0
BITMAP
14
14
00
1C
62
41
81
81
82
46
38
ENDCHAR

STARTCHAR divide
ENCODING 247
SWIDTH 606 0
DWIDTH 10 0
BBX 6 7 2 1
BITMAP
10
10
00
FC
00
20
20
ENDCHAR

STARTCHAR oslash
ENCODING 248
SWIDTH 653 0
DWIDTH 9 0
BBX 8 8 0 0
BITMAP
1D
62
45
89
91
A2
46
B8
ENDCHAR

STARTCHAR ugrave
ENCODING 249
SWIDTH 608 0
DWIDTH 9 0
BBX 8 11 0 0
BITMAP
08
04
00
41
41
41
82
82
82
C6
7A
ENDCHAR

STARTCHAR uacute
ENCODING 250
SWIDTH 608 0
DWIDTH 9 0
BBX 8 11 0 0
BITMAP
04
08
00
41
41
41
82
82
82
C6
7A
ENDCHAR

STARTCHAR ucircumflex
ENCODING 251
SWIDTH 608 0
DWIDTH 9 0
BBX 8 11 0 0
BITMAP
0C
14
00
41
41
41
82
82
82
C6
7A
ENDCHAR

STARTCHAR udieresis
ENCODING 252
SWIDTH 608 0
DWIDTH 9 0
BBX 8 11 0 0
BITMAP
14
14
00
41
41
41
82
82
82
C6
7A
ENDCHAR

STARTCHAR yacute
ENCODING 253
SWIDTH 536 0
DWIDTH 8 0
BBX 7 14 0 -3
BITMAP
08
10
00
82
82
44
48
48
50
30
20
40
40
80
ENDCHAR

STARTCHAR thorn
ENCODING 254
SWIDTH 682 0
DWIDTH 9 0
BBX 9 14 -1 -3
BITMAP
1000
1000
1000
2E00
3100
2080
2080
4080
4100
6300
5C00
8000
8000
8000
ENDCHAR

STARTCHAR ydieresis
ENCODING 255
SWIDTH 536 0
DWIDTH 8 0
BBX 7 14 0 -3
BITMAP
28
28
00
82
82
44
48
48
50
30
20
40
40
80
ENDCHAR
ENDFONT
